<mxfile host="Electron" agent="Mozilla/5.0 (X11; Linux x86_64) AppleWebKit/537.36 (KHTML, like Gecko) draw.io/26.0.4 Chrome/128.0.6613.186 Electron/32.2.5 Safari/537.36" version="26.0.4">
  <diagram name="Page-1" id="zAl3V3G42ZyEV2WTPMDu">
    <mxGraphModel dx="3330" dy="2633" grid="1" gridSize="10" guides="1" tooltips="1" connect="1" arrows="1" fold="1" page="1" pageScale="1" pageWidth="850" pageHeight="1100" math="1" shadow="0">
      <root>
        <mxCell id="0" />
        <mxCell id="1" parent="0" />
        <mxCell id="PHJ-UF2AtvQlFfFWjD3D-5" value="&lt;font style=&quot;font-size: 40px;&quot;&gt;Optimization&lt;/font&gt;&lt;div&gt;&lt;font style=&quot;font-size: 40px;&quot;&gt;toolbox&lt;/font&gt;&lt;/div&gt;" style="rounded=0;labelPosition=center;verticalLabelPosition=middle;align=center;verticalAlign=middle;whiteSpace=wrap;html=1;spacingLeft=20;spacingTop=10;fontSize=30;" parent="1" vertex="1">
          <mxGeometry x="281" y="160" width="520" height="440" as="geometry" />
        </mxCell>
        <mxCell id="HOHPpLjiFJN_buEDUcy6-12" value="&lt;font style=&quot;font-size: 30px; color: rgb(255, 128, 0);&quot;&gt;Dynamic variables/tools&lt;/font&gt;" style="rounded=0;whiteSpace=wrap;html=1;fillColor=none;strokeColor=#FF8000;dashed=1;dashPattern=12 12;strokeWidth=2;align=right;verticalAlign=top;fontColor=#FF00FF;" parent="1" vertex="1">
          <mxGeometry x="840" y="185" width="490" height="335" as="geometry" />
        </mxCell>
        <mxCell id="PHJ-UF2AtvQlFfFWjD3D-7" value="" style="endArrow=classic;html=1;rounded=0;entryX=0.25;entryY=0;entryDx=0;entryDy=0;strokeWidth=5;fontColor=#990000;strokeColor=#990000;" parent="1" target="PHJ-UF2AtvQlFfFWjD3D-5" edge="1">
          <mxGeometry width="50" height="50" relative="1" as="geometry">
            <mxPoint x="410" y="-50" as="sourcePoint" />
            <mxPoint x="170" y="-10" as="targetPoint" />
          </mxGeometry>
        </mxCell>
        <mxCell id="PHJ-UF2AtvQlFfFWjD3D-8" value="" style="endArrow=classic;html=1;rounded=0;strokeWidth=5;exitX=0.75;exitY=0;exitDx=0;exitDy=0;fontColor=#990000;strokeColor=#990000;" parent="1" source="PHJ-UF2AtvQlFfFWjD3D-5" edge="1">
          <mxGeometry width="50" height="50" relative="1" as="geometry">
            <mxPoint x="650" y="130" as="sourcePoint" />
            <mxPoint x="670" y="-50" as="targetPoint" />
          </mxGeometry>
        </mxCell>
        <mxCell id="PHJ-UF2AtvQlFfFWjD3D-9" value="" style="endArrow=classic;html=1;rounded=0;strokeWidth=5;exitX=0.25;exitY=1;exitDx=0;exitDy=0;entryX=0.196;entryY=0.022;entryDx=0;entryDy=0;entryPerimeter=0;strokeColor=#000099;edgeStyle=orthogonalEdgeStyle;" parent="1" source="PHJ-UF2AtvQlFfFWjD3D-5" target="uxyoxZeuOjAu9Z7nn7YK-5" edge="1">
          <mxGeometry width="50" height="50" relative="1" as="geometry">
            <mxPoint x="410" y="650" as="sourcePoint" />
            <mxPoint x="140" y="610" as="targetPoint" />
          </mxGeometry>
        </mxCell>
        <mxCell id="PHJ-UF2AtvQlFfFWjD3D-10" value="" style="endArrow=classic;html=1;rounded=0;strokeWidth=5;entryX=0.75;entryY=1;entryDx=0;entryDy=0;exitX=0.803;exitY=0.026;exitDx=0;exitDy=0;exitPerimeter=0;strokeColor=#000099;edgeStyle=orthogonalEdgeStyle;" parent="1" source="uxyoxZeuOjAu9Z7nn7YK-5" target="PHJ-UF2AtvQlFfFWjD3D-5" edge="1">
          <mxGeometry width="50" height="50" relative="1" as="geometry">
            <mxPoint x="580" y="610" as="sourcePoint" />
            <mxPoint x="670" y="650" as="targetPoint" />
          </mxGeometry>
        </mxCell>
        <mxCell id="PHJ-UF2AtvQlFfFWjD3D-12" value="&lt;div&gt;User input&lt;/div&gt;&lt;div&gt;\[\boldsymbol{\theta}\]&lt;/div&gt;" style="text;html=1;align=center;verticalAlign=middle;whiteSpace=wrap;rounded=0;fontSize=30;fontFamily=Helvetica;fontColor=#990000;" parent="1" vertex="1">
          <mxGeometry x="230" y="10" width="170" height="130" as="geometry" />
        </mxCell>
        <mxCell id="PHJ-UF2AtvQlFfFWjD3D-13" value="Query" style="text;html=1;align=center;verticalAlign=middle;whiteSpace=wrap;rounded=0;fontSize=30;strokeColor=none;fontColor=#000099;" parent="1" vertex="1">
          <mxGeometry x="250" y="630" width="190" height="90" as="geometry" />
        </mxCell>
        <mxCell id="PHJ-UF2AtvQlFfFWjD3D-14" value="Response" style="text;html=1;align=center;verticalAlign=middle;whiteSpace=wrap;rounded=0;fontSize=30;strokeColor=none;fontColor=#000099;" parent="1" vertex="1">
          <mxGeometry x="670" y="630" width="190" height="90" as="geometry" />
        </mxCell>
        <mxCell id="uxyoxZeuOjAu9Z7nn7YK-4" value="&lt;div&gt;Decision variables&lt;/div&gt;&lt;div&gt;\[\boldsymbol{x}^*\]&lt;/div&gt;" style="text;html=1;align=center;verticalAlign=middle;whiteSpace=wrap;rounded=0;fontSize=30;fontFamily=Helvetica;fontColor=#990000;" parent="1" vertex="1">
          <mxGeometry x="690" y="10" width="250" height="130" as="geometry" />
        </mxCell>
        <mxCell id="uxyoxZeuOjAu9Z7nn7YK-5" value="&lt;font style=&quot;font-size: 30px;&quot;&gt;Database&lt;/font&gt;" style="shape=datastore;whiteSpace=wrap;html=1;direction=east;strokeColor=#000099;fontColor=#000099;" parent="1" vertex="1">
          <mxGeometry x="410" y="771" width="260" height="260" as="geometry" />
        </mxCell>
        <mxCell id="uxyoxZeuOjAu9Z7nn7YK-7" value="Surrogate models" style="text;html=1;align=center;verticalAlign=middle;whiteSpace=wrap;rounded=0;fontSize=30;fontColor=#006600;" parent="1" vertex="1">
          <mxGeometry x="-26.960000000000036" y="240" width="260" height="90" as="geometry" />
        </mxCell>
        <mxCell id="uxyoxZeuOjAu9Z7nn7YK-9" value="Cost functions" style="text;html=1;align=center;verticalAlign=middle;whiteSpace=wrap;rounded=0;fontSize=30;fontColor=#006600;" parent="1" vertex="1">
          <mxGeometry x="-25.960000000000036" y="360" width="260" height="90" as="geometry" />
        </mxCell>
        <mxCell id="HOHPpLjiFJN_buEDUcy6-2" value="" style="shape=flexArrow;endArrow=classic;html=1;rounded=0;strokeColor=#006600;" parent="1" edge="1">
          <mxGeometry width="50" height="50" relative="1" as="geometry">
            <mxPoint x="-79" y="440" as="sourcePoint" />
            <mxPoint x="281" y="440" as="targetPoint" />
          </mxGeometry>
        </mxCell>
        <mxCell id="HOHPpLjiFJN_buEDUcy6-3" value="" style="shape=flexArrow;endArrow=classic;html=1;rounded=0;entryX=0.002;entryY=0.275;entryDx=0;entryDy=0;entryPerimeter=0;strokeColor=#006600;" parent="1" edge="1">
          <mxGeometry width="50" height="50" relative="1" as="geometry">
            <mxPoint x="-80" y="320" as="sourcePoint" />
            <mxPoint x="282.03999999999996" y="321" as="targetPoint" />
          </mxGeometry>
        </mxCell>
        <mxCell id="HOHPpLjiFJN_buEDUcy6-4" value="&lt;span style=&quot;font-size: 40px;&quot;&gt;&lt;font style=&quot;color: rgb(153, 0, 0);&quot;&gt;User interface&lt;/font&gt;&lt;/span&gt;" style="rounded=0;labelPosition=center;verticalLabelPosition=middle;align=center;verticalAlign=middle;whiteSpace=wrap;html=1;spacingLeft=20;spacingTop=10;fontSize=30;strokeColor=#990000;" parent="1" vertex="1">
          <mxGeometry x="281" y="-280" width="520" height="230" as="geometry" />
        </mxCell>
        <mxCell id="HOHPpLjiFJN_buEDUcy6-5" value="Electricity price" style="text;html=1;align=center;verticalAlign=middle;whiteSpace=wrap;rounded=0;fontSize=30;fontColor=#FF8000;" parent="1" vertex="1">
          <mxGeometry x="850" y="240" width="260" height="90" as="geometry" />
        </mxCell>
        <mxCell id="HOHPpLjiFJN_buEDUcy6-7" value="Weather data" style="text;html=1;align=center;verticalAlign=middle;whiteSpace=wrap;rounded=0;fontSize=30;fontColor=#FF8000;" parent="1" vertex="1">
          <mxGeometry x="850" y="360" width="260" height="90" as="geometry" />
        </mxCell>
        <mxCell id="HOHPpLjiFJN_buEDUcy6-11" value="&lt;font style=&quot;font-size: 30px;&quot;&gt;Static tools/libraries&lt;/font&gt;" style="rounded=0;whiteSpace=wrap;html=1;fillColor=none;strokeColor=#006600;dashed=1;dashPattern=12 12;strokeWidth=2;align=left;verticalAlign=top;fontColor=#006600;" parent="1" vertex="1">
          <mxGeometry x="-260" y="185" width="510" height="335" as="geometry" />
        </mxCell>
        <mxCell id="HOHPpLjiFJN_buEDUcy6-13" value="&lt;font style=&quot;font-size: 30px;&quot;&gt;Database interaction&lt;/font&gt;" style="rounded=0;whiteSpace=wrap;html=1;fillColor=none;strokeColor=#000099;dashed=1;dashPattern=12 12;strokeWidth=2;align=left;verticalAlign=bottom;fontColor=#000099;" parent="1" vertex="1">
          <mxGeometry x="260" y="630" width="580" height="460" as="geometry" />
        </mxCell>
        <mxCell id="HOHPpLjiFJN_buEDUcy6-14" value="&lt;font style=&quot;font-size: 30px; color: rgb(153, 0, 0);&quot;&gt;User interaction&lt;/font&gt;" style="rounded=0;whiteSpace=wrap;html=1;fillColor=none;strokeColor=#990000;dashed=1;dashPattern=12 12;strokeWidth=2;align=left;verticalAlign=top;fontColor=#006600;" parent="1" vertex="1">
          <mxGeometry x="210" y="-360" width="740" height="500" as="geometry" />
        </mxCell>
        <mxCell id="BIzvtHP8uBE0xapMVY8M-1" value="" style="endArrow=classic;html=1;rounded=0;entryX=0.25;entryY=0;entryDx=0;entryDy=0;strokeWidth=5;fontColor=#990000;strokeColor=#FF8000;" edge="1" parent="1">
          <mxGeometry width="50" height="50" relative="1" as="geometry">
            <mxPoint x="1160" y="320" as="sourcePoint" />
            <mxPoint x="802" y="320" as="targetPoint" />
          </mxGeometry>
        </mxCell>
        <mxCell id="BIzvtHP8uBE0xapMVY8M-2" value="" style="endArrow=classic;html=1;rounded=0;entryX=0.25;entryY=0;entryDx=0;entryDy=0;strokeWidth=5;fontColor=#990000;strokeColor=#FF8000;" edge="1" parent="1">
          <mxGeometry width="50" height="50" relative="1" as="geometry">
            <mxPoint x="1159" y="440" as="sourcePoint" />
            <mxPoint x="801" y="440" as="targetPoint" />
          </mxGeometry>
        </mxCell>
      </root>
    </mxGraphModel>
  </diagram>
</mxfile>
